<?xml version="1.0" encoding="utf-8" ?>
<svg xmlns="http://www.w3.org/2000/svg" xmlns:xlink="http://www.w3.org/1999/xlink" width="185" height="213" shape-rendering="crispEdges">
	<path transform="matrix(-0.5 0.866025 -0.866025 -0.5 95.6434 207.194)" d="M0 0L6.4150028 0L6.4150028 0.48112524L0 0.48112524L0 0Z"/>
	<path transform="matrix(-1 5.96046e-08 -5.96046e-08 -1 101.85 207.074)" d="M0 0L6.4150028 0L6.4150028 0.48112524L0 0.48112524L0 0Z"/>
	<path transform="matrix(0.5 0.866025 -0.866025 0.5 99.0592 200.797)" d="M0 0L6.4150028 0L6.4150028 0.48112524L0 0.48112524L0 0Z"/>
	<path transform="matrix(-0.5 0.866025 -0.866025 -0.5 102.475 195.361)" d="M0 0L6.4150028 0L6.4150028 0.48112524L0 0.48112524L0 0Z"/>
	<path transform="matrix(-1 5.96046e-08 -5.96046e-08 -1 108.682 195.241)" d="M0 0L6.4150028 0L6.4150028 0.48112524L0 0.48112524L0 0Z"/>
	<path transform="matrix(-0.5 -0.866025 0.866025 -0.5 111.889 200.556)" d="M0 0L6.4150028 0L6.4150028 0.48112524L0 0.48112524L0 0Z"/>
	<path transform="matrix(-0.5 0.866025 -0.866025 -0.5 115.93 195.001)" d="M0 0L6.4150028 0L6.4150028 0.48112524L0 0.48112524L0 0Z"/>
	<path transform="matrix(-1 5.96046e-08 -5.96046e-08 -1 122.345 195.241)" d="M0 0L6.4150028 0L6.4150028 0.48112524L0 0.48112524L0 0Z"/>
	<path transform="matrix(0.5 0.866025 -0.866025 0.5 119.554 188.964)" d="M0 0L6.4150028 0L6.4150028 0.48112524L0 0.48112524L0 0Z"/>
	<path transform="matrix(-0.5 0.866025 -0.866025 -0.5 122.553 183.529)" d="M0 0L6.4150028 0L6.4150028 0.48112524L0 0.48112524L0 0Z"/>
	<path transform="matrix(1 -1.78814e-07 1.78814e-07 1 115.722 182.807)" d="M0 0L6.4150028 0L6.4150028 0.48112524L0 0.48112524L0 0Z"/>
	<path transform="matrix(0.5 0.866025 -0.866025 0.5 112.723 177.131)" d="M0 0L6.4150028 0L6.4150028 0.48112524L0 0.48112524L0 0Z"/>
	<path transform="matrix(-0.5 0.866025 -0.866025 -0.5 116.138 171.696)" d="M0 0L6.4150028 0L6.4150028 0.48112524L0 0.48112524L0 0Z"/>
	<path transform="matrix(-1 5.96046e-08 -5.96046e-08 -1 122.345 171.576)" d="M0 0L6.4150028 0L6.4150028 0.48112524L0 0.48112524L0 0Z"/>
	<path transform="matrix(0.5 0.866025 -0.866025 0.5 119.554 165.298)" d="M0 0L6.4150028 0L6.4150028 0.48112524L0 0.48112524L0 0Z"/>
	<path transform="matrix(-0.5 0.866025 -0.866025 -0.5 122.97 159.863)" d="M0 0L6.4150028 0L6.4150028 0.48112524L0 0.48112524L0 0Z"/>
	<path transform="matrix(-1 5.96046e-08 -5.96046e-08 -1 129.177 159.743)" d="M0 0L6.4150028 0L6.4150028 0.48112524L0 0.48112524L0 0Z"/>
	<path transform="matrix(-0.5 -0.866025 0.866025 -0.5 132.384 165.058)" d="M0 0L6.4150028 0L6.4150028 0.48112524L0 0.48112524L0 0Z"/>
	<path transform="matrix(-0.5 0.866025 -0.866025 -0.5 136.425 159.502)" d="M0 0L6.4150028 0L6.4150028 0.48112524L0 0.48112524L0 0Z"/>
	<path transform="matrix(-1 5.96046e-08 -5.96046e-08 -1 142.84 159.743)" d="M0 0L6.4150028 0L6.4150028 0.48112524L0 0.48112524L0 0Z"/>
	<path transform="matrix(-0.5 -0.866025 0.866025 -0.5 146.048 165.058)" d="M0 0L6.4150028 0L6.4150028 0.48112524L0 0.48112524L0 0Z"/>
	<path transform="matrix(0.5 -0.866025 0.866025 0.5 143.048 170.493)" d="M0 0L6.4150028 0L6.4150028 0.48112524L0 0.48112524L0 0Z"/>
	<path transform="matrix(-1 2.98023e-08 -2.98023e-08 -1 149.88 171.215)" d="M0 0L6.4150028 0L6.4150028 0.48112524L0 0.48112524L0 0Z"/>
	<path transform="matrix(-0.5 -0.866025 0.866025 -0.5 152.879 176.891)" d="M0 0L6.4150028 0L6.4150028 0.48112524L0 0.48112524L0 0Z"/>
	<path transform="matrix(-0.5 0.866025 -0.866025 -0.5 156.92 171.335)" d="M0 0L6.4150028 0L6.4150028 0.48112524L0 0.48112524L0 0Z"/>
	<path transform="matrix(-1 5.96046e-08 -5.96046e-08 -1 163.127 171.215)" d="M0 0L6.4150028 0L6.4150028 0.48112524L0 0.48112524L0 0Z"/>
	<path transform="matrix(0.5 0.866025 -0.866025 0.5 160.336 164.937)" d="M0 0L6.4150028 0L6.4150028 0.48112524L0 0.48112524L0 0Z"/>
	<path transform="matrix(-0.5 0.866025 -0.866025 -0.5 163.752 159.502)" d="M0 0L6.4150028 0L6.4150028 0.48112524L0 0.48112524L0 0Z"/>
	<path transform="matrix(-1 5.96046e-08 -5.96046e-08 -1 170.167 159.743)" d="M0 0L6.4150028 0L6.4150028 0.48112524L0 0.48112524L0 0Z"/>
	<path transform="matrix(-0.5 -0.866025 0.866025 -0.5 173.374 165.058)" d="M0 0L6.4150028 0L6.4150028 0.48112524L0 0.48112524L0 0Z"/>
	<path transform="matrix(-0.5 0.866025 -0.866025 -0.5 177.415 159.502)" d="M0 0L6.4150028 0L6.4150028 0.48112524L0 0.48112524L0 0Z"/>
	<path transform="matrix(-1 5.96046e-08 -5.96046e-08 -1 183.83 159.743)" d="M0 0L6.4150028 0L6.4150028 0.48112524L0 0.48112524L0 0Z"/>
	<path transform="matrix(0.5 0.866025 -0.866025 0.5 181.039 153.466)" d="M0 0L6.4150028 0L6.4150028 0.48112524L0 0.48112524L0 0Z"/>
	<path transform="matrix(-0.5 0.866025 -0.866025 -0.5 184.038 148.03)" d="M0 0L6.4150028 0L6.4150028 0.48112524L0 0.48112524L0 0Z"/>
	<path transform="matrix(1 -1.78814e-07 1.78814e-07 1 177.207 147.309)" d="M0 0L6.4150028 0L6.4150028 0.48112524L0 0.48112524L0 0Z"/>
	<path transform="matrix(0.5 0.866025 -0.866025 0.5 174.208 141.633)" d="M0 0L6.4150028 0L6.4150028 0.48112524L0 0.48112524L0 0Z"/>
	<path transform="matrix(-0.5 0.866025 -0.866025 -0.5 177.207 136.197)" d="M0 0L6.4150028 0L6.4150028 0.48112524L0 0.48112524L0 0Z"/>
	<path transform="matrix(-1 0 0 -1 183.413 136.077)" d="M0 0L6.4150028 0L6.4150028 0.48112524L0 0.48112524L0 0Z"/>
	<path transform="matrix(0.5 0.866025 -0.866025 0.5 180.623 129.8)" d="M0 0L6.4150028 0L6.4150028 0.48112524L0 0.48112524L0 0Z"/>
	<path transform="matrix(-0.5 0.866025 -0.866025 -0.5 184.038 124.365)" d="M0 0L6.4150028 0L6.4150028 0.48112524L0 0.48112524L0 0Z"/>
	<path transform="matrix(1 -1.78814e-07 1.78814e-07 1 177.207 123.643)" d="M0 0L6.4150028 0L6.4150028 0.48112524L0 0.48112524L0 0Z"/>
	<path transform="matrix(0.5 0.866025 -0.866025 0.5 173.999 118.328)" d="M0 0L6.4150028 0L6.4150028 0.48112524L0 0.48112524L0 0Z"/>
	<path transform="matrix(0.5 -0.866026 0.866026 0.5 169.958 123.884)" d="M0 0L6.4150028 0L6.4150028 0.48112524L0 0.48112524L0 0Z"/>
	<path transform="matrix(1 -1.78814e-07 1.78814e-07 1 163.543 123.643)" d="M0 0L6.4150028 0L6.4150028 0.48112524L0 0.48112524L0 0Z"/>
	<path transform="matrix(0.5 0.866025 -0.866025 0.5 160.544 117.967)" d="M0 0L6.4150028 0L6.4150028 0.48112524L0 0.48112524L0 0Z"/>
	<path transform="matrix(-0.5 0.866025 -0.866025 -0.5 163.543 112.532)" d="M0 0L6.4150028 0L6.4150028 0.48112524L0 0.48112524L0 0Z"/>
	<path transform="matrix(1 -1.78814e-07 1.78814e-07 1 156.712 111.81)" d="M0 0L6.4150028 0L6.4150028 0.48112524L0 0.48112524L0 0Z"/>
	<path transform="matrix(0.5 0.866025 -0.866025 0.5 153.713 106.134)" d="M0 0L6.4150028 0L6.4150028 0.48112524L0 0.48112524L0 0Z"/>
	<path transform="matrix(-0.5 0.866025 -0.866025 -0.5 157.128 100.699)" d="M0 0L6.4150028 0L6.4150028 0.48112524L0 0.48112524L0 0Z"/>
	<path transform="matrix(-1 5.96046e-08 -5.96046e-08 -1 163.335 100.579)" d="M0 0L6.4150028 0L6.4150028 0.48112524L0 0.48112524L0 0Z"/>
	<path transform="matrix(0.5 0.866025 -0.866025 0.5 160.544 94.3015)" d="M0 0L6.4150028 0L6.4150028 0.48112524L0 0.48112524L0 0Z"/>
	<path transform="matrix(-0.5 0.866025 -0.866025 -0.5 163.96 88.8662)" d="M0 0L6.4150028 0L6.4150028 0.48112524L0 0.48112524L0 0Z"/>
	<path transform="matrix(-1 5.96046e-08 -5.96046e-08 -1 170.167 88.746)" d="M0 0L6.4150028 0L6.4150028 0.48112524L0 0.48112524L0 0Z"/>
	<path transform="matrix(-0.5 -0.866025 0.866025 -0.5 173.374 94.061)" d="M0 0L6.4150028 0L6.4150028 0.48112524L0 0.48112524L0 0Z"/>
	<path transform="matrix(-0.5 0.866025 -0.866025 -0.5 177.415 88.5054)" d="M0 0L6.4150028 0L6.4150028 0.48112524L0 0.48112524L0 0Z"/>
	<path transform="matrix(-1 5.96046e-08 -5.96046e-08 -1 183.83 88.746)" d="M0 0L6.4150028 0L6.4150028 0.48112524L0 0.48112524L0 0Z"/>
	<path transform="matrix(0.5 0.866025 -0.866025 0.5 181.039 82.4687)" d="M0 0L6.4150028 0L6.4150028 0.48112524L0 0.48112524L0 0Z"/>
	<path transform="matrix(-0.5 0.866025 -0.866025 -0.5 184.038 77.0334)" d="M0 0L6.4150028 0L6.4150028 0.48112524L0 0.48112524L0 0Z"/>
	<path transform="matrix(1 -1.78814e-07 1.78814e-07 1 177.207 76.3118)" d="M0 0L6.4150028 0L6.4150028 0.48112524L0 0.48112524L0 0Z"/>
	<path transform="matrix(0.5 0.866025 -0.866025 0.5 174.208 70.6359)" d="M0 0L6.4150028 0L6.4150028 0.48112524L0 0.48112524L0 0Z"/>
	<path transform="matrix(-0.5 0.866025 -0.866025 -0.5 177.623 65.2007)" d="M0 0L6.4150028 0L6.4150028 0.48112524L0 0.48112524L0 0Z"/>
	<path transform="matrix(-1 5.96046e-08 -5.96046e-08 -1 183.83 65.0804)" d="M0 0L6.4150028 0L6.4150028 0.48112524L0 0.48112524L0 0Z"/>
	<path transform="matrix(0.5 0.866025 -0.866025 0.5 181.039 58.8031)" d="M0 0L6.4150028 0L6.4150028 0.48112524L0 0.48112524L0 0Z"/>
	<path transform="matrix(-0.5 0.866025 -0.866025 -0.5 184.455 53.3679)" d="M0 0L6.4150028 0L6.4150028 0.48112524L0 0.48112524L0 0Z"/>
	<path transform="matrix(-0.5 -0.866025 0.866025 -0.5 3.20751 58.9234)" d="M0 0L6.4150028 0L6.4150028 0.48112524L0 0.48112524L0 0Z"/>
	<path transform="matrix(0.5 -0.866025 0.866025 0.5 0.208344 64.3587)" d="M0 0L6.4150028 0L6.4150028 0.48112524L0 0.48112524L0 0Z"/>
	<path transform="matrix(-1 1.19209e-07 -1.19209e-07 -1 7.04001 65.0804)" d="M0 0L6.4150028 0L6.4150028 0.48112524L0 0.48112524L0 0Z"/>
	<path transform="matrix(-0.5 -0.866025 0.866025 -0.5 10.0392 70.7562)" d="M0 0L6.4150028 0L6.4150028 0.48112524L0 0.48112524L0 0Z"/>
	<path transform="matrix(0.5 -0.866025 0.866025 0.5 7.04001 76.1915)" d="M0 0L6.4150028 0L6.4150028 0.48112524L0 0.48112524L0 0Z"/>
	<path transform="matrix(1 2.98023e-08 -2.98023e-08 1 0.833344 76.3118)" d="M0 0L6.4150028 0L6.4150028 0.48112524L0 0.48112524L0 0Z"/>
	<path transform="matrix(-0.5 -0.866025 0.866025 -0.5 3.62418 82.589)" d="M0 0L6.4150028 0L6.4150028 0.48112524L0 0.48112524L0 0Z"/>
	<path transform="matrix(0.5 -0.866025 0.866025 0.5 0.208344 88.0243)" d="M0 0L6.4150028 0L6.4150028 0.48112524L0 0.48112524L0 0Z"/>
	<path transform="matrix(-1 1.19209e-07 -1.19209e-07 -1 7.04001 88.746)" d="M0 0L6.4150028 0L6.4150028 0.48112524L0 0.48112524L0 0Z"/>
	<path transform="matrix(-0.5 -0.866025 0.866025 -0.5 10.2475 94.061)" d="M0 0L6.4150028 0L6.4150028 0.48112524L0 0.48112524L0 0Z"/>
	<path transform="matrix(-0.5 0.866026 -0.866026 -0.5 14.2884 88.5054)" d="M0 0L6.4150028 0L6.4150028 0.48112524L0 0.48112524L0 0Z"/>
	<path transform="matrix(-1 1.19209e-07 -1.19209e-07 -1 20.7034 88.746)" d="M0 0L6.4150028 0L6.4150028 0.48112524L0 0.48112524L0 0Z"/>
	<path transform="matrix(-0.5 -0.866025 0.866025 -0.5 23.7025 94.4218)" d="M0 0L6.4150028 0L6.4150028 0.48112524L0 0.48112524L0 0Z"/>
	<path transform="matrix(0.5 -0.866025 0.866025 0.5 20.7034 99.8571)" d="M0 0L6.4150028 0L6.4150028 0.48112524L0 0.48112524L0 0Z"/>
	<path transform="matrix(-1 1.19209e-07 -1.19209e-07 -1 27.535 100.579)" d="M0 0L6.4150028 0L6.4150028 0.48112524L0 0.48112524L0 0Z"/>
	<path transform="matrix(-0.5 -0.866025 0.866025 -0.5 30.5342 106.255)" d="M0 0L6.4150028 0L6.4150028 0.48112524L0 0.48112524L0 0Z"/>
	<path transform="matrix(0.5 -0.866025 0.866025 0.5 27.535 111.69)" d="M0 0L6.4150028 0L6.4150028 0.48112524L0 0.48112524L0 0Z"/>
	<path transform="matrix(1 2.98023e-08 -2.98023e-08 1 21.3284 111.81)" d="M0 0L6.4150028 0L6.4150028 0.48112524L0 0.48112524L0 0Z"/>
	<path transform="matrix(-0.5 -0.866025 0.866025 -0.5 24.1192 118.087)" d="M0 0L6.4150028 0L6.4150028 0.48112524L0 0.48112524L0 0Z"/>
	<path transform="matrix(0.5 -0.866025 0.866025 0.5 20.7034 123.523)" d="M0 0L6.4150028 0L6.4150028 0.48112524L0 0.48112524L0 0Z"/>
	<path transform="matrix(1 2.98023e-08 -2.98023e-08 1 14.4967 123.643)" d="M0 0L6.4150028 0L6.4150028 0.48112524L0 0.48112524L0 0Z"/>
	<path transform="matrix(0.5 0.866025 -0.866025 0.5 11.2892 118.328)" d="M0 0L6.4150028 0L6.4150028 0.48112524L0 0.48112524L0 0Z"/>
	<path transform="matrix(0.5 -0.866025 0.866025 0.5 7.24835 123.884)" d="M0 0L6.4150028 0L6.4150028 0.48112524L0 0.48112524L0 0Z"/>
	<path transform="matrix(1 2.98023e-08 -2.98023e-08 1 0.833347 123.643)" d="M0 0L6.4150028 0L6.4150028 0.48112524L0 0.48112524L0 0Z"/>
	<path transform="matrix(-0.5 -0.866025 0.866025 -0.5 3.62418 129.92)" d="M0 0L6.4150028 0L6.4150028 0.48112524L0 0.48112524L0 0Z"/>
	<path transform="matrix(0.5 -0.866025 0.866025 0.5 0.625014 135.356)" d="M0 0L6.4150028 0L6.4150028 0.48112524L0 0.48112524L0 0Z"/>
	<path transform="matrix(-1 8.9407e-08 -8.9407e-08 -1 7.45668 136.077)" d="M0 0L6.4150028 0L6.4150028 0.48112524L0 0.48112524L0 0Z"/>
	<path transform="matrix(-0.5 -0.866025 0.866025 -0.5 10.4559 141.753)" d="M0 0L6.4150028 0L6.4150028 0.48112524L0 0.48112524L0 0Z"/>
	<path transform="matrix(0.5 -0.866025 0.866025 0.5 7.04002 147.188)" d="M0 0L6.4150028 0L6.4150028 0.48112524L0 0.48112524L0 0Z"/>
	<path transform="matrix(1 2.98023e-08 -2.98023e-08 1 0.833348 147.309)" d="M0 0L6.4150028 0L6.4150028 0.48112524L0 0.48112524L0 0Z"/>
	<path transform="matrix(-0.5 -0.866025 0.866025 -0.5 3.62418 153.586)" d="M0 0L6.4150028 0L6.4150028 0.48112524L0 0.48112524L0 0Z"/>
	<path transform="matrix(0.5 -0.866025 0.866025 0.5 0.208349 159.021)" d="M0 0L6.4150028 0L6.4150028 0.48112524L0 0.48112524L0 0Z"/>
	<path transform="matrix(-1 1.19209e-07 -1.19209e-07 -1 7.04002 159.743)" d="M0 0L6.4150028 0L6.4150028 0.48112524L0 0.48112524L0 0Z"/>
	<path transform="matrix(-0.5 -0.866025 0.866025 -0.5 10.2475 165.058)" d="M0 0L6.4150028 0L6.4150028 0.48112524L0 0.48112524L0 0Z"/>
	<path transform="matrix(-0.5 0.866026 -0.866026 -0.5 14.2884 159.502)" d="M0 0L6.4150028 0L6.4150028 0.48112524L0 0.48112524L0 0Z"/>
	<path transform="matrix(-1 1.19209e-07 -1.19209e-07 -1 20.7034 159.743)" d="M0 0L6.4150028 0L6.4150028 0.48112524L0 0.48112524L0 0Z"/>
	<path transform="matrix(-0.5 -0.866025 0.866025 -0.5 23.9109 165.058)" d="M0 0L6.4150028 0L6.4150028 0.48112524L0 0.48112524L0 0Z"/>
	<path transform="matrix(0.5 -0.866025 0.866025 0.5 20.9117 170.493)" d="M0 0L6.4150028 0L6.4150028 0.48112524L0 0.48112524L0 0Z"/>
	<path transform="matrix(-1 1.19209e-07 -1.19209e-07 -1 27.7434 171.215)" d="M0 0L6.4150028 0L6.4150028 0.48112524L0 0.48112524L0 0Z"/>
	<path transform="matrix(-0.5 -0.866025 0.866025 -0.5 30.7425 176.891)" d="M0 0L6.4150028 0L6.4150028 0.48112524L0 0.48112524L0 0Z"/>
	<path transform="matrix(-0.5 0.866026 -0.866026 -0.5 34.7834 171.335)" d="M0 0L6.4150028 0L6.4150028 0.48112524L0 0.48112524L0 0Z"/>
	<path transform="matrix(-1 8.9407e-08 -8.9407e-08 -1 40.99 171.215)" d="M0 0L6.4150028 0L6.4150028 0.48112524L0 0.48112524L0 0Z"/>
	<path transform="matrix(0.5 0.866025 -0.866025 0.5 38.1992 164.937)" d="M0 0L6.4150028 0L6.4150028 0.48112524L0 0.48112524L0 0Z"/>
	<path transform="matrix(-0.5 0.866026 -0.866026 -0.5 41.615 159.502)" d="M0 0L6.4150028 0L6.4150028 0.48112524L0 0.48112524L0 0Z"/>
	<path transform="matrix(-1 1.19209e-07 -1.19209e-07 -1 48.03 159.743)" d="M0 0L6.4150028 0L6.4150028 0.48112524L0 0.48112524L0 0Z"/>
	<path transform="matrix(-0.5 -0.866025 0.866025 -0.5 51.2375 165.058)" d="M0 0L6.4150028 0L6.4150028 0.48112524L0 0.48112524L0 0Z"/>
	<path transform="matrix(-0.5 0.866026 -0.866026 -0.5 55.2784 159.502)" d="M0 0L6.4150028 0L6.4150028 0.48112524L0 0.48112524L0 0Z"/>
	<path transform="matrix(-1 1.19209e-07 -1.19209e-07 -1 61.6934 159.743)" d="M0 0L6.4150028 0L6.4150028 0.48112524L0 0.48112524L0 0Z"/>
	<path transform="matrix(-0.5 -0.866025 0.866025 -0.5 64.6925 165.419)" d="M0 0L6.4150028 0L6.4150028 0.48112524L0 0.48112524L0 0Z"/>
	<path transform="matrix(0.5 -0.866025 0.866025 0.5 61.6934 170.854)" d="M0 0L6.4150028 0L6.4150028 0.48112524L0 0.48112524L0 0Z"/>
	<path transform="matrix(-1 1.19209e-07 -1.19209e-07 -1 68.525 171.576)" d="M0 0L6.4150028 0L6.4150028 0.48112524L0 0.48112524L0 0Z"/>
	<path transform="matrix(-0.5 -0.866025 0.866025 -0.5 71.5242 177.251)" d="M0 0L6.4150028 0L6.4150028 0.48112524L0 0.48112524L0 0Z"/>
	<path transform="matrix(0.5 -0.866025 0.866025 0.5 68.525 182.687)" d="M0 0L6.4150028 0L6.4150028 0.48112524L0 0.48112524L0 0Z"/>
	<path transform="matrix(1 2.98023e-08 -2.98023e-08 1 62.3184 182.807)" d="M0 0L6.4150028 0L6.4150028 0.48112524L0 0.48112524L0 0Z"/>
	<path transform="matrix(-0.5 -0.866025 0.866025 -0.5 65.1092 189.084)" d="M0 0L6.4150028 0L6.4150028 0.48112524L0 0.48112524L0 0Z"/>
	<path transform="matrix(0.5 -0.866025 0.866025 0.5 61.6934 194.519)" d="M0 0L6.4150028 0L6.4150028 0.48112524L0 0.48112524L0 0Z"/>
	<path transform="matrix(-1 1.19209e-07 -1.19209e-07 -1 68.525 195.241)" d="M0 0L6.4150028 0L6.4150028 0.48112524L0 0.48112524L0 0Z"/>
	<path transform="matrix(-0.5 -0.866025 0.866025 -0.5 71.7326 200.556)" d="M0 0L6.4150028 0L6.4150028 0.48112524L0 0.48112524L0 0Z"/>
	<path transform="matrix(-0.5 0.866026 -0.866026 -0.5 75.7734 195.001)" d="M0 0L6.4150028 0L6.4150028 0.48112524L0 0.48112524L0 0Z"/>
	<path transform="matrix(-1 1.19209e-07 -1.19209e-07 -1 82.1884 195.241)" d="M0 0L6.4150028 0L6.4150028 0.48112524L0 0.48112524L0 0Z"/>
	<path transform="matrix(-0.5 -0.866025 0.866025 -0.5 85.1876 200.917)" d="M0 0L6.4150028 0L6.4150028 0.48112524L0 0.48112524L0 0Z"/>
	<path transform="matrix(0.5 -0.866025 0.866025 0.5 82.1884 206.352)" d="M0 0L6.4150028 0L6.4150028 0.48112524L0 0.48112524L0 0Z"/>
	<path transform="matrix(-1 1.19209e-07 -1.19209e-07 -1 89.0201 207.074)" d="M0 0L6.4150028 0L6.4150028 0.48112524L0 0.48112524L0 0Z"/>
	<path transform="matrix(-0.5 -0.866025 0.866025 -0.5 92.0192 212.75)" d="M0 0L6.4150028 0L6.4150028 0.48112524L0 0.48112524L0 0Z"/>
	<path transform="translate(177.623 52.6462)" d="M0 0L6.4150028 0L6.4150028 0.48112524L0 0.48112524L0 0Z"/>
	<path transform="matrix(0.5 0.866025 -0.866025 0.5 174.416 47.3312)" d="M0 0L6.4150028 0L6.4150028 0.48112524L0 0.48112524L0 0Z"/>
	<path transform="matrix(0.5 -0.866025 0.866025 0.5 170.375 52.8868)" d="M0 0L6.4150028 0L6.4150028 0.48112524L0 0.48112524L0 0Z"/>
	<path transform="translate(163.96 52.6462)" d="M0 0L6.4150028 0L6.4150028 0.48112524L0 0.48112524L0 0Z"/>
	<path transform="matrix(0.5 0.866025 -0.866025 0.5 160.753 47.3312)" d="M0 0L6.4150028 0L6.4150028 0.48112524L0 0.48112524L0 0Z"/>
	<path transform="matrix(-0.5 0.866025 -0.866025 -0.5 163.752 41.8959)" d="M0 0L6.4150028 0L6.4150028 0.48112524L0 0.48112524L0 0Z"/>
	<path transform="translate(156.92 41.1742)" d="M0 0L6.4150028 0L6.4150028 0.48112524L0 0.48112524L0 0Z"/>
	<path transform="matrix(0.5 0.866025 -0.866025 0.5 153.921 35.4984)" d="M0 0L6.4150028 0L6.4150028 0.48112524L0 0.48112524L0 0Z"/>
	<path transform="matrix(0.5 -0.866025 0.866025 0.5 149.88 41.054)" d="M0 0L6.4150028 0L6.4150028 0.48112524L0 0.48112524L0 0Z"/>
	<path transform="translate(143.673 41.1742)" d="M0 0L6.4150028 0L6.4150028 0.48112524L0 0.48112524L0 0Z"/>
	<path transform="matrix(-0.5 -0.866025 0.866025 -0.5 146.464 47.4515)" d="M0 0L6.4150028 0L6.4150028 0.48112524L0 0.48112524L0 0Z"/>
	<path transform="matrix(0.5 -0.866025 0.866025 0.5 143.048 52.8868)" d="M0 0L6.4150028 0L6.4150028 0.48112524L0 0.48112524L0 0Z"/>
	<path transform="translate(136.633 52.6462)" d="M0 0L6.4150028 0L6.4150028 0.48112524L0 0.48112524L0 0Z"/>
	<path transform="matrix(0.5 0.866025 -0.866025 0.5 133.426 47.3312)" d="M0 0L6.4150028 0L6.4150028 0.48112524L0 0.48112524L0 0Z"/>
	<path transform="matrix(0.5 -0.866025 0.866025 0.5 129.385 52.8868)" d="M0 0L6.4150028 0L6.4150028 0.48112524L0 0.48112524L0 0Z"/>
	<path transform="translate(122.97 52.6462)" d="M0 0L6.4150028 0L6.4150028 0.48112524L0 0.48112524L0 0Z"/>
	<path transform="matrix(0.5 0.866025 -0.866025 0.5 119.763 47.3312)" d="M0 0L6.4150028 0L6.4150028 0.48112524L0 0.48112524L0 0Z"/>
	<path transform="matrix(-0.5 0.866025 -0.866025 -0.5 122.762 41.8959)" d="M0 0L6.4150028 0L6.4150028 0.48112524L0 0.48112524L0 0Z"/>
	<path transform="translate(115.93 41.1742)" d="M0 0L6.4150028 0L6.4150028 0.48112524L0 0.48112524L0 0Z"/>
	<path transform="matrix(0.5 0.866025 -0.866025 0.5 112.931 35.4984)" d="M0 0L6.4150028 0L6.4150028 0.48112524L0 0.48112524L0 0Z"/>
	<path transform="matrix(-0.5 0.866025 -0.866025 -0.5 115.93 30.0631)" d="M0 0L6.4150028 0L6.4150028 0.48112524L0 0.48112524L0 0Z"/>
	<path transform="matrix(-1 -1.49012e-07 1.49012e-07 -1 122.137 29.9429)" d="M0 0L6.4150028 0L6.4150028 0.48112524L0 0.48112524L0 0Z"/>
	<path transform="matrix(0.5 0.866025 -0.866025 0.5 119.346 23.6656)" d="M0 0L6.4150028 0L6.4150028 0.48112524L0 0.48112524L0 0Z"/>
	<path transform="matrix(-0.5 0.866025 -0.866025 -0.5 122.762 18.2303)" d="M0 0L6.4150028 0L6.4150028 0.48112524L0 0.48112524L0 0Z"/>
	<path transform="translate(115.93 17.5086)" d="M0 0L6.4150028 0L6.4150028 0.48112524L0 0.48112524L0 0Z"/>
	<path transform="matrix(0.5 0.866025 -0.866025 0.5 112.723 12.1937)" d="M0 0L6.4150028 0L6.4150028 0.48112524L0 0.48112524L0 0Z"/>
	<path transform="matrix(0.5 -0.866025 0.866025 0.5 108.682 17.7492)" d="M0 0L6.4150028 0L6.4150028 0.48112524L0 0.48112524L0 0Z"/>
	<path transform="translate(102.267 17.5086)" d="M0 0L6.4150028 0L6.4150028 0.48112524L0 0.48112524L0 0Z"/>
	<path transform="matrix(0.5 0.866025 -0.866025 0.5 99.2675 11.8328)" d="M0 0L6.4150028 0L6.4150028 0.48112524L0 0.48112524L0 0Z"/>
	<path transform="matrix(-0.5 0.866025 -0.866025 -0.5 102.267 6.39754)" d="M0 0L6.4150028 0L6.4150028 0.48112524L0 0.48112524L0 0Z"/>
	<path transform="translate(95.435 5.67585)" d="M0 0L6.4150028 0L6.4150028 0.48112524L0 0.48112524L0 0Z"/>
	<path transform="matrix(0.5 0.866025 -0.866025 0.5 92.4359 1.14441e-05)" d="M0 0L6.4150028 0L6.4150028 0.48112524L0 0.48112524L0 0Z"/>
	<path transform="matrix(0.5 -0.866025 0.866025 0.5 88.395 5.55557)" d="M0 0L6.4150028 0L6.4150028 0.48112524L0 0.48112524L0 0Z"/>
	<path transform="translate(82.1884 5.67585)" d="M0 0L6.4150028 0L6.4150028 0.48112524L0 0.48112524L0 0Z"/>
	<path transform="matrix(-0.5 -0.866025 0.866025 -0.5 84.9792 11.9531)" d="M0 0L6.4150028 0L6.4150028 0.48112524L0 0.48112524L0 0Z"/>
	<path transform="matrix(0.5 -0.866025 0.866025 0.5 81.5634 17.3884)" d="M0 0L6.4150028 0L6.4150028 0.48112524L0 0.48112524L0 0Z"/>
	<path transform="translate(75.3567 17.5086)" d="M0 0L6.4150028 0L6.4150028 0.48112524L0 0.48112524L0 0Z"/>
	<path transform="matrix(0.5 0.866025 -0.866025 0.5 72.1492 12.1937)" d="M0 0L6.4150028 0L6.4150028 0.48112524L0 0.48112524L0 0Z"/>
	<path transform="matrix(0.5 -0.866025 0.866025 0.5 68.1084 17.7492)" d="M0 0L6.4150028 0L6.4150028 0.48112524L0 0.48112524L0 0Z"/>
	<path transform="translate(61.6934 17.5086)" d="M0 0L6.4150028 0L6.4150028 0.48112524L0 0.48112524L0 0Z"/>
	<path transform="matrix(-0.5 -0.866025 0.866025 -0.5 64.4842 23.7859)" d="M0 0L6.4150028 0L6.4150028 0.48112524L0 0.48112524L0 0Z"/>
	<path transform="matrix(0.5 -0.866025 0.866025 0.5 61.485 29.2212)" d="M0 0L6.4150028 0L6.4150028 0.48112524L0 0.48112524L0 0Z"/>
	<path transform="matrix(-1 1.49012e-07 -1.49012e-07 -1 68.3167 29.9429)" d="M0 0L6.4150028 0L6.4150028 0.48112524L0 0.48112524L0 0Z"/>
	<path transform="matrix(-0.5 -0.866025 0.866025 -0.5 71.3159 35.6187)" d="M0 0L6.4150028 0L6.4150028 0.48112524L0 0.48112524L0 0Z"/>
	<path transform="matrix(0.5 -0.866025 0.866025 0.5 67.9 41.054)" d="M0 0L6.4150028 0L6.4150028 0.48112524L0 0.48112524L0 0Z"/>
	<path transform="translate(61.6934 41.1742)" d="M0 0L6.4150028 0L6.4150028 0.48112524L0 0.48112524L0 0Z"/>
	<path transform="matrix(-0.5 -0.866025 0.866025 -0.5 64.4842 47.4515)" d="M0 0L6.4150028 0L6.4150028 0.48112524L0 0.48112524L0 0Z"/>
	<path transform="matrix(0.5 -0.866025 0.866025 0.5 61.0684 52.8868)" d="M0 0L6.4150028 0L6.4150028 0.48112524L0 0.48112524L0 0Z"/>
	<path transform="translate(54.6534 52.6462)" d="M0 0L6.4150028 0L6.4150028 0.48112524L0 0.48112524L0 0Z"/>
	<path transform="matrix(0.5 0.866025 -0.866025 0.5 51.4459 47.3312)" d="M0 0L6.4150028 0L6.4150028 0.48112524L0 0.48112524L0 0Z"/>
	<path transform="matrix(0.5 -0.866025 0.866025 0.5 47.405 52.8868)" d="M0 0L6.4150028 0L6.4150028 0.48112524L0 0.48112524L0 0Z"/>
	<path transform="translate(40.99 52.6462)" d="M0 0L6.4150028 0L6.4150028 0.48112524L0 0.48112524L0 0Z"/>
	<path transform="matrix(0.5 0.866025 -0.866025 0.5 37.7825 47.3312)" d="M0 0L6.4150028 0L6.4150028 0.48112524L0 0.48112524L0 0Z"/>
	<path transform="matrix(-0.5 0.866025 -0.866025 -0.5 40.7817 41.8959)" d="M0 0L6.4150028 0L6.4150028 0.48112524L0 0.48112524L0 0Z"/>
	<path transform="translate(33.95 41.1742)" d="M0 0L6.4150028 0L6.4150028 0.48112524L0 0.48112524L0 0Z"/>
	<path transform="matrix(0.5 0.866025 -0.866025 0.5 30.9508 35.4984)" d="M0 0L6.4150028 0L6.4150028 0.48112524L0 0.48112524L0 0Z"/>
	<path transform="matrix(0.5 -0.866025 0.866025 0.5 26.91 41.054)" d="M0 0L6.4150028 0L6.4150028 0.48112524L0 0.48112524L0 0Z"/>
	<path transform="translate(20.7033 41.1742)" d="M0 0L6.4150028 0L6.4150028 0.48112524L0 0.48112524L0 0Z"/>
	<path transform="matrix(-0.5 -0.866025 0.866025 -0.5 23.4942 47.4515)" d="M0 0L6.4150028 0L6.4150028 0.48112524L0 0.48112524L0 0Z"/>
	<path transform="matrix(0.5 -0.866025 0.866025 0.5 20.0783 52.8868)" d="M0 0L6.4150028 0L6.4150028 0.48112524L0 0.48112524L0 0Z"/>
	<path transform="translate(13.6633 52.6462)" d="M0 0L6.4150028 0L6.4150028 0.48112524L0 0.48112524L0 0Z"/>
	<path transform="matrix(0.5 0.866025 -0.866025 0.5 10.4558 47.3312)" d="M0 0L6.4150028 0L6.4150028 0.48112524L0 0.48112524L0 0Z"/>
	<path transform="matrix(0.5 -0.866025 0.866025 0.5 6.415 52.8868)" d="M0 0L6.4150028 0L6.4150028 0.48112524L0 0.48112524L0 0Z"/>
	<path transform="translate(0 52.6462)" d="M0 0L6.4150028 0L6.4150028 0.48112524L0 0.48112524L0 0Z"/>
	<path transform="matrix(-1 1.19209e-07 -1.19209e-07 -1 92.334 191.575)" d="M0 0L0.213 0L0.213 170.39999L0 170.39999L0 0Z"/>
	<path transform="matrix(-1 1.19209e-07 -1.19209e-07 -1 92.334 191.575)" d="M0 0L0.213 0L0.213 170.39999L0 170.39999L0 0Z"/>
	<path transform="matrix(-0.5 -0.866025 0.866025 -0.5 18.4954 149.067)" d="M0 0L0.213 0L0.213 170.39999L0 170.39999L0 0Z"/>
	<path transform="matrix(-0.5 -0.866025 0.866025 -0.5 18.4954 149.067)" d="M0 0L0.213 0L0.213 170.39999L0 170.39999L0 0Z"/>
	<path transform="matrix(0.5 -0.866025 0.866025 0.5 18.3889 63.8671)" d="M0 0L0.213 0L0.213 170.39999L0 170.39999L0 0Z"/>
	<path transform="matrix(0.5 -0.866025 0.866025 0.5 18.3889 63.8671)" d="M0 0L0.213 0L0.213 170.39999L0 170.39999L0 0Z"/>
	<path transform="translate(92.121 21.1749)" d="M0 0L0.213 0L0.213 170.39999L0 170.39999L0 0Z"/>
	<path transform="translate(92.121 21.1749)" d="M0 0L0.213 0L0.213 170.39999L0 170.39999L0 0Z"/>
</svg>
