<?xml version="1.0" encoding="utf-8" ?>
<svg xmlns="http://www.w3.org/2000/svg" xmlns:xlink="http://www.w3.org/1999/xlink" width="189" height="217" shape-rendering="crispEdges">
	<path transform="matrix(-0.5 0.866025 -0.866025 -0.5 97.5878 211.444)" d="M0 0L6.415 0L6.415 0.6415L0 0.6415L0 0Z"/>
	<path transform="matrix(-1 5.96046e-08 -5.96046e-08 -1 103.725 211.284)" d="M0 0L6.415 0L6.415 0.6415L0 0.6415L0 0Z"/>
	<path transform="matrix(0.5 0.866025 -0.866025 0.5 101.073 204.766)" d="M0 0L6.415 0L6.415 0.6415L0 0.6415L0 0Z"/>
	<path transform="matrix(-0.5 0.866025 -0.866025 -0.5 104.558 199.371)" d="M0 0L6.415 0L6.415 0.6415L0 0.6415L0 0Z"/>
	<path transform="matrix(-1 5.96046e-08 -5.96046e-08 -1 110.696 199.21)" d="M0 0L6.415 0L6.415 0.6415L0 0.6415L0 0Z"/>
	<path transform="matrix(-0.5 -0.866025 0.866025 -0.5 113.903 204.445)" d="M0 0L6.415 0L6.415 0.6415L0 0.6415L0 0Z"/>
	<path transform="matrix(-0.5 0.866025 -0.866025 -0.5 118.222 198.89)" d="M0 0L6.415 0L6.415 0.6415L0 0.6415L0 0Z"/>
	<path transform="matrix(-1 5.96046e-08 -5.96046e-08 -1 124.637 199.21)" d="M0 0L6.415 0L6.415 0.6415L0 0.6415L0 0Z"/>
	<path transform="matrix(0.5 0.866025 -0.866025 0.5 121.985 192.693)" d="M0 0L6.415 0L6.415 0.6415L0 0.6415L0 0Z"/>
	<path transform="matrix(-0.5 0.866025 -0.866025 -0.5 124.914 187.297)" d="M0 0L6.415 0L6.415 0.6415L0 0.6415L0 0Z"/>
	<path transform="matrix(1 -1.78814e-07 1.78814e-07 1 117.944 186.335)" d="M0 0L6.415 0L6.415 0.6415L0 0.6415L0 0Z"/>
	<path transform="matrix(0.5 0.866025 -0.866025 0.5 115.014 180.619)" d="M0 0L6.415 0L6.415 0.6415L0 0.6415L0 0Z"/>
	<path transform="matrix(-0.5 0.866025 -0.866025 -0.5 118.499 175.224)" d="M0 0L6.415 0L6.415 0.6415L0 0.6415L0 0Z"/>
	<path transform="matrix(-1 5.96046e-08 -5.96046e-08 -1 124.637 175.064)" d="M0 0L6.415 0L6.415 0.6415L0 0.6415L0 0Z"/>
	<path transform="matrix(0.5 0.866025 -0.866025 0.5 121.985 168.546)" d="M0 0L6.415 0L6.415 0.6415L0 0.6415L0 0Z"/>
	<path transform="matrix(-0.5 0.866025 -0.866025 -0.5 125.47 163.151)" d="M0 0L6.415 0L6.415 0.6415L0 0.6415L0 0Z"/>
	<path transform="matrix(-1 5.96046e-08 -5.96046e-08 -1 131.607 162.99)" d="M0 0L6.415 0L6.415 0.6415L0 0.6415L0 0Z"/>
	<path transform="matrix(-0.5 -0.866025 0.866025 -0.5 134.815 168.225)" d="M0 0L6.415 0L6.415 0.6415L0 0.6415L0 0Z"/>
	<path transform="matrix(-0.5 0.866025 -0.866025 -0.5 139.133 162.67)" d="M0 0L6.415 0L6.415 0.6415L0 0.6415L0 0Z"/>
	<path transform="matrix(-1 5.96046e-08 -5.96046e-08 -1 145.548 162.99)" d="M0 0L6.415 0L6.415 0.6415L0 0.6415L0 0Z"/>
	<path transform="matrix(-0.5 -0.866025 0.866025 -0.5 148.756 168.225)" d="M0 0L6.415 0L6.415 0.6415L0 0.6415L0 0Z"/>
	<path transform="matrix(0.5 -0.866025 0.866025 0.5 145.826 173.62)" d="M0 0L6.415 0L6.415 0.6415L0 0.6415L0 0Z"/>
	<path transform="matrix(-1 2.98023e-08 -2.98023e-08 -1 152.797 174.583)" d="M0 0L6.415 0L6.415 0.6415L0 0.6415L0 0Z"/>
	<path transform="matrix(-0.5 -0.866025 0.866025 -0.5 155.726 180.299)" d="M0 0L6.415 0L6.415 0.6415L0 0.6415L0 0Z"/>
	<path transform="matrix(-0.5 0.866025 -0.866025 -0.5 160.045 174.743)" d="M0 0L6.415 0L6.415 0.6415L0 0.6415L0 0Z"/>
	<path transform="matrix(-1 5.96046e-08 -5.96046e-08 -1 166.182 174.583)" d="M0 0L6.415 0L6.415 0.6415L0 0.6415L0 0Z"/>
	<path transform="matrix(0.5 0.866025 -0.866025 0.5 163.53 168.065)" d="M0 0L6.415 0L6.415 0.6415L0 0.6415L0 0Z"/>
	<path transform="matrix(-0.5 0.866025 -0.866025 -0.5 167.016 162.67)" d="M0 0L6.415 0L6.415 0.6415L0 0.6415L0 0Z"/>
	<path transform="matrix(-1 5.96046e-08 -5.96046e-08 -1 173.431 162.99)" d="M0 0L6.415 0L6.415 0.6415L0 0.6415L0 0Z"/>
	<path transform="matrix(-0.5 -0.866025 0.866025 -0.5 176.638 168.225)" d="M0 0L6.415 0L6.415 0.6415L0 0.6415L0 0Z"/>
	<path transform="matrix(-0.5 0.866025 -0.866025 -0.5 180.957 162.67)" d="M0 0L6.415 0L6.415 0.6415L0 0.6415L0 0Z"/>
	<path transform="matrix(-1 5.96046e-08 -5.96046e-08 -1 187.372 162.99)" d="M0 0L6.415 0L6.415 0.6415L0 0.6415L0 0Z"/>
	<path transform="matrix(0.5 0.866025 -0.866025 0.5 184.72 156.473)" d="M0 0L6.415 0L6.415 0.6415L0 0.6415L0 0Z"/>
	<path transform="matrix(-0.5 0.866025 -0.866025 -0.5 187.65 151.077)" d="M0 0L6.415 0L6.415 0.6415L0 0.6415L0 0Z"/>
	<path transform="matrix(1 -1.78814e-07 1.78814e-07 1 180.679 150.115)" d="M0 0L6.415 0L6.415 0.6415L0 0.6415L0 0Z"/>
	<path transform="matrix(0.5 0.866025 -0.866025 0.5 177.749 144.399)" d="M0 0L6.415 0L6.415 0.6415L0 0.6415L0 0Z"/>
	<path transform="matrix(-0.5 0.866025 -0.866025 -0.5 180.679 139.004)" d="M0 0L6.415 0L6.415 0.6415L0 0.6415L0 0Z"/>
	<path transform="matrix(-1 0 0 -1 186.816 138.844)" d="M0 0L6.415 0L6.415 0.6415L0 0.6415L0 0Z"/>
	<path transform="matrix(0.5 0.866025 -0.866025 0.5 184.164 132.326)" d="M0 0L6.415 0L6.415 0.6415L0 0.6415L0 0Z"/>
	<path transform="matrix(-0.5 0.866025 -0.866025 -0.5 187.649 126.931)" d="M0 0L6.415 0L6.415 0.6415L0 0.6415L0 0Z"/>
	<path transform="matrix(1 -1.78814e-07 1.78814e-07 1 180.679 125.968)" d="M0 0L6.415 0L6.415 0.6415L0 0.6415L0 0Z"/>
	<path transform="matrix(0.5 0.866025 -0.866025 0.5 177.471 120.734)" d="M0 0L6.415 0L6.415 0.6415L0 0.6415L0 0Z"/>
	<path transform="matrix(0.5 -0.866026 0.866026 0.5 173.153 126.289)" d="M0 0L6.415 0L6.415 0.6415L0 0.6415L0 0Z"/>
	<path transform="matrix(1 -1.78814e-07 1.78814e-07 1 166.738 125.968)" d="M0 0L6.415 0L6.415 0.6415L0 0.6415L0 0Z"/>
	<path transform="matrix(0.5 0.866025 -0.866025 0.5 163.808 120.252)" d="M0 0L6.415 0L6.415 0.6415L0 0.6415L0 0Z"/>
	<path transform="matrix(-0.5 0.866025 -0.866025 -0.5 166.738 114.857)" d="M0 0L6.415 0L6.415 0.6415L0 0.6415L0 0Z"/>
	<path transform="matrix(1 -1.78814e-07 1.78814e-07 1 159.767 113.895)" d="M0 0L6.415 0L6.415 0.6415L0 0.6415L0 0Z"/>
	<path transform="matrix(0.5 0.866025 -0.866025 0.5 156.838 108.179)" d="M0 0L6.415 0L6.415 0.6415L0 0.6415L0 0Z"/>
	<path transform="matrix(-0.5 0.866025 -0.866025 -0.5 160.323 102.784)" d="M0 0L6.415 0L6.415 0.6415L0 0.6415L0 0Z"/>
	<path transform="matrix(-1 5.96046e-08 -5.96046e-08 -1 166.46 102.624)" d="M0 0L6.415 0L6.415 0.6415L0 0.6415L0 0Z"/>
	<path transform="matrix(0.5 0.866025 -0.866025 0.5 163.808 96.1058)" d="M0 0L6.415 0L6.415 0.6415L0 0.6415L0 0Z"/>
	<path transform="matrix(-0.5 0.866025 -0.866025 -0.5 167.293 90.7106)" d="M0 0L6.415 0L6.415 0.6415L0 0.6415L0 0Z"/>
	<path transform="matrix(-1 5.96046e-08 -5.96046e-08 -1 173.431 90.5502)" d="M0 0L6.415 0L6.415 0.6415L0 0.6415L0 0Z"/>
	<path transform="matrix(-0.5 -0.866025 0.866025 -0.5 176.638 95.785)" d="M0 0L6.415 0L6.415 0.6415L0 0.6415L0 0Z"/>
	<path transform="matrix(-0.5 0.866025 -0.866025 -0.5 180.957 90.2294)" d="M0 0L6.415 0L6.415 0.6415L0 0.6415L0 0Z"/>
	<path transform="matrix(-1 5.96046e-08 -5.96046e-08 -1 187.372 90.5502)" d="M0 0L6.415 0L6.415 0.6415L0 0.6415L0 0Z"/>
	<path transform="matrix(0.5 0.866025 -0.866025 0.5 184.72 84.0324)" d="M0 0L6.415 0L6.415 0.6415L0 0.6415L0 0Z"/>
	<path transform="matrix(-0.5 0.866025 -0.866025 -0.5 187.649 78.6372)" d="M0 0L6.415 0L6.415 0.6415L0 0.6415L0 0Z"/>
	<path transform="matrix(1 -1.78814e-07 1.78814e-07 1 180.679 77.675)" d="M0 0L6.415 0L6.415 0.6415L0 0.6415L0 0Z"/>
	<path transform="matrix(0.5 0.866025 -0.866025 0.5 177.749 71.959)" d="M0 0L6.415 0L6.415 0.6415L0 0.6415L0 0Z"/>
	<path transform="matrix(-0.5 0.866025 -0.866025 -0.5 181.234 66.5639)" d="M0 0L6.415 0L6.415 0.6415L0 0.6415L0 0Z"/>
	<path transform="matrix(-1 5.96046e-08 -5.96046e-08 -1 187.372 66.4035)" d="M0 0L6.415 0L6.415 0.6415L0 0.6415L0 0Z"/>
	<path transform="matrix(0.5 0.866025 -0.866025 0.5 184.72 59.8857)" d="M0 0L6.415 0L6.415 0.6415L0 0.6415L0 0Z"/>
	<path transform="matrix(-0.5 0.866025 -0.866025 -0.5 188.205 54.4905)" d="M0 0L6.415 0L6.415 0.6415L0 0.6415L0 0Z"/>
	<path transform="matrix(-0.5 -0.866025 0.866025 -0.5 3.2075 60.0461)" d="M0 0L6.415 0L6.415 0.6415L0 0.6415L0 0Z"/>
	<path transform="matrix(0.5 -0.866025 0.866025 0.5 0.27778 65.4412)" d="M0 0L6.415 0L6.415 0.6415L0 0.6415L0 0Z"/>
	<path transform="matrix(-1 1.19209e-07 -1.19209e-07 -1 7.24834 66.4035)" d="M0 0L6.415 0L6.415 0.6415L0 0.6415L0 0Z"/>
	<path transform="matrix(-0.5 -0.866025 0.866025 -0.5 10.1781 72.1194)" d="M0 0L6.415 0L6.415 0.6415L0 0.6415L0 0Z"/>
	<path transform="matrix(0.5 -0.866025 0.866025 0.5 7.24834 77.5146)" d="M0 0L6.415 0L6.415 0.6415L0 0.6415L0 0Z"/>
	<path transform="matrix(1 2.98023e-08 -2.98023e-08 1 1.11111 77.675)" d="M0 0L6.415 0L6.415 0.6415L0 0.6415L0 0Z"/>
	<path transform="matrix(-0.5 -0.866025 0.866025 -0.5 3.76306 84.1928)" d="M0 0L6.415 0L6.415 0.6415L0 0.6415L0 0Z"/>
	<path transform="matrix(0.5 -0.866025 0.866025 0.5 0.277781 89.588)" d="M0 0L6.415 0L6.415 0.6415L0 0.6415L0 0Z"/>
	<path transform="matrix(-1 1.19209e-07 -1.19209e-07 -1 7.24834 90.5502)" d="M0 0L6.415 0L6.415 0.6415L0 0.6415L0 0Z"/>
	<path transform="matrix(-0.5 -0.866025 0.866025 -0.5 10.4558 95.785)" d="M0 0L6.415 0L6.415 0.6415L0 0.6415L0 0Z"/>
	<path transform="matrix(-0.5 0.866026 -0.866026 -0.5 14.7745 90.2295)" d="M0 0L6.415 0L6.415 0.6415L0 0.6415L0 0Z"/>
	<path transform="matrix(-1 1.19209e-07 -1.19209e-07 -1 21.1895 90.5502)" d="M0 0L6.415 0L6.415 0.6415L0 0.6415L0 0Z"/>
	<path transform="matrix(-0.5 -0.866025 0.866025 -0.5 24.1192 96.2662)" d="M0 0L6.415 0L6.415 0.6415L0 0.6415L0 0Z"/>
	<path transform="matrix(0.5 -0.866025 0.866025 0.5 21.1895 101.661)" d="M0 0L6.415 0L6.415 0.6415L0 0.6415L0 0Z"/>
	<path transform="matrix(-1 1.19209e-07 -1.19209e-07 -1 28.16 102.624)" d="M0 0L6.415 0L6.415 0.6415L0 0.6415L0 0Z"/>
	<path transform="matrix(-0.5 -0.866025 0.866025 -0.5 31.0897 108.34)" d="M0 0L6.415 0L6.415 0.6415L0 0.6415L0 0Z"/>
	<path transform="matrix(0.5 -0.866025 0.866025 0.5 28.16 113.735)" d="M0 0L6.415 0L6.415 0.6415L0 0.6415L0 0Z"/>
	<path transform="matrix(1 2.98023e-08 -2.98023e-08 1 22.0228 113.895)" d="M0 0L6.415 0L6.415 0.6415L0 0.6415L0 0Z"/>
	<path transform="matrix(-0.5 -0.866025 0.866025 -0.5 24.6747 120.413)" d="M0 0L6.415 0L6.415 0.6415L0 0.6415L0 0Z"/>
	<path transform="matrix(0.5 -0.866025 0.866025 0.5 21.1895 125.808)" d="M0 0L6.415 0L6.415 0.6415L0 0.6415L0 0Z"/>
	<path transform="matrix(1 2.98023e-08 -2.98023e-08 1 15.0522 125.968)" d="M0 0L6.415 0L6.415 0.6415L0 0.6415L0 0Z"/>
	<path transform="matrix(0.5 0.866025 -0.866025 0.5 11.8447 120.734)" d="M0 0L6.415 0L6.415 0.6415L0 0.6415L0 0Z"/>
	<path transform="matrix(0.5 -0.866025 0.866025 0.5 7.52612 126.289)" d="M0 0L6.415 0L6.415 0.6415L0 0.6415L0 0Z"/>
	<path transform="matrix(1 2.98023e-08 -2.98023e-08 1 1.11112 125.968)" d="M0 0L6.415 0L6.415 0.6415L0 0.6415L0 0Z"/>
	<path transform="matrix(-0.5 -0.866025 0.866025 -0.5 3.76306 132.486)" d="M0 0L6.415 0L6.415 0.6415L0 0.6415L0 0Z"/>
	<path transform="matrix(0.5 -0.866025 0.866025 0.5 0.833338 137.881)" d="M0 0L6.415 0L6.415 0.6415L0 0.6415L0 0Z"/>
	<path transform="matrix(-1 8.9407e-08 -8.9407e-08 -1 7.8039 138.844)" d="M0 0L6.415 0L6.415 0.6415L0 0.6415L0 0Z"/>
	<path transform="matrix(-0.5 -0.866025 0.866025 -0.5 10.7336 144.56)" d="M0 0L6.415 0L6.415 0.6415L0 0.6415L0 0Z"/>
	<path transform="matrix(0.5 -0.866025 0.866025 0.5 7.24834 149.955)" d="M0 0L6.415 0L6.415 0.6415L0 0.6415L0 0Z"/>
	<path transform="matrix(1 2.98023e-08 -2.98023e-08 1 1.11112 150.115)" d="M0 0L6.415 0L6.415 0.6415L0 0.6415L0 0Z"/>
	<path transform="matrix(-0.5 -0.866025 0.866025 -0.5 3.76306 156.633)" d="M0 0L6.415 0L6.415 0.6415L0 0.6415L0 0Z"/>
	<path transform="matrix(0.5 -0.866025 0.866025 0.5 0.277784 162.028)" d="M0 0L6.415 0L6.415 0.6415L0 0.6415L0 0Z"/>
	<path transform="matrix(-1 1.19209e-07 -1.19209e-07 -1 7.24834 162.99)" d="M0 0L6.415 0L6.415 0.6415L0 0.6415L0 0Z"/>
	<path transform="matrix(-0.5 -0.866025 0.866025 -0.5 10.4558 168.225)" d="M0 0L6.415 0L6.415 0.6415L0 0.6415L0 0Z"/>
	<path transform="matrix(-0.5 0.866026 -0.866026 -0.5 14.7745 162.67)" d="M0 0L6.415 0L6.415 0.6415L0 0.6415L0 0Z"/>
	<path transform="matrix(-1 1.19209e-07 -1.19209e-07 -1 21.1895 162.99)" d="M0 0L6.415 0L6.415 0.6415L0 0.6415L0 0Z"/>
	<path transform="matrix(-0.5 -0.866025 0.866025 -0.5 24.397 168.225)" d="M0 0L6.415 0L6.415 0.6415L0 0.6415L0 0Z"/>
	<path transform="matrix(0.5 -0.866025 0.866025 0.5 21.4672 173.62)" d="M0 0L6.415 0L6.415 0.6415L0 0.6415L0 0Z"/>
	<path transform="matrix(-1 1.19209e-07 -1.19209e-07 -1 28.4378 174.583)" d="M0 0L6.415 0L6.415 0.6415L0 0.6415L0 0Z"/>
	<path transform="matrix(-0.5 -0.866025 0.866025 -0.5 31.3675 180.299)" d="M0 0L6.415 0L6.415 0.6415L0 0.6415L0 0Z"/>
	<path transform="matrix(-0.5 0.866026 -0.866026 -0.5 35.6861 174.743)" d="M0 0L6.415 0L6.415 0.6415L0 0.6415L0 0Z"/>
	<path transform="matrix(-1 8.9407e-08 -8.9407e-08 -1 41.8234 174.583)" d="M0 0L6.415 0L6.415 0.6415L0 0.6415L0 0Z"/>
	<path transform="matrix(0.5 0.866025 -0.866025 0.5 39.1714 168.065)" d="M0 0L6.415 0L6.415 0.6415L0 0.6415L0 0Z"/>
	<path transform="matrix(-0.5 0.866026 -0.866026 -0.5 42.6567 162.67)" d="M0 0L6.415 0L6.415 0.6415L0 0.6415L0 0Z"/>
	<path transform="matrix(-1 1.19209e-07 -1.19209e-07 -1 49.0717 162.99)" d="M0 0L6.415 0L6.415 0.6415L0 0.6415L0 0Z"/>
	<path transform="matrix(-0.5 -0.866025 0.866025 -0.5 52.2792 168.225)" d="M0 0L6.415 0L6.415 0.6415L0 0.6415L0 0Z"/>
	<path transform="matrix(-0.5 0.866026 -0.866026 -0.5 56.5978 162.67)" d="M0 0L6.415 0L6.415 0.6415L0 0.6415L0 0Z"/>
	<path transform="matrix(-1 1.19209e-07 -1.19209e-07 -1 63.0128 162.99)" d="M0 0L6.415 0L6.415 0.6415L0 0.6415L0 0Z"/>
	<path transform="matrix(-0.5 -0.866025 0.866025 -0.5 65.9425 168.706)" d="M0 0L6.415 0L6.415 0.6415L0 0.6415L0 0Z"/>
	<path transform="matrix(0.5 -0.866025 0.866025 0.5 63.0128 174.101)" d="M0 0L6.415 0L6.415 0.6415L0 0.6415L0 0Z"/>
	<path transform="matrix(-1 1.19209e-07 -1.19209e-07 -1 69.9834 175.064)" d="M0 0L6.415 0L6.415 0.6415L0 0.6415L0 0Z"/>
	<path transform="matrix(-0.5 -0.866025 0.866025 -0.5 72.9131 180.78)" d="M0 0L6.415 0L6.415 0.6415L0 0.6415L0 0Z"/>
	<path transform="matrix(0.5 -0.866025 0.866025 0.5 69.9834 186.175)" d="M0 0L6.415 0L6.415 0.6415L0 0.6415L0 0Z"/>
	<path transform="matrix(1 2.98023e-08 -2.98023e-08 1 63.8461 186.335)" d="M0 0L6.415 0L6.415 0.6415L0 0.6415L0 0Z"/>
	<path transform="matrix(-0.5 -0.866025 0.866025 -0.5 66.4981 192.853)" d="M0 0L6.415 0L6.415 0.6415L0 0.6415L0 0Z"/>
	<path transform="matrix(0.5 -0.866025 0.866025 0.5 63.0128 198.248)" d="M0 0L6.415 0L6.415 0.6415L0 0.6415L0 0Z"/>
	<path transform="matrix(-1 1.19209e-07 -1.19209e-07 -1 69.9834 199.21)" d="M0 0L6.415 0L6.415 0.6415L0 0.6415L0 0Z"/>
	<path transform="matrix(-0.5 -0.866025 0.866025 -0.5 73.1909 204.445)" d="M0 0L6.415 0L6.415 0.6415L0 0.6415L0 0Z"/>
	<path transform="matrix(-0.5 0.866026 -0.866026 -0.5 77.5095 198.89)" d="M0 0L6.415 0L6.415 0.6415L0 0.6415L0 0Z"/>
	<path transform="matrix(-1 1.19209e-07 -1.19209e-07 -1 83.9245 199.21)" d="M0 0L6.415 0L6.415 0.6415L0 0.6415L0 0Z"/>
	<path transform="matrix(-0.5 -0.866025 0.866025 -0.5 86.8542 204.926)" d="M0 0L6.415 0L6.415 0.6415L0 0.6415L0 0Z"/>
	<path transform="matrix(0.5 -0.866025 0.866025 0.5 83.9245 210.322)" d="M0 0L6.415 0L6.415 0.6415L0 0.6415L0 0Z"/>
	<path transform="matrix(-1 1.19209e-07 -1.19209e-07 -1 90.8951 211.284)" d="M0 0L6.415 0L6.415 0.6415L0 0.6415L0 0Z"/>
	<path transform="matrix(-0.5 -0.866025 0.866025 -0.5 93.8248 217)" d="M0 0L6.415 0L6.415 0.6415L0 0.6415L0 0Z"/>
	<path transform="translate(181.235 53.5283)" d="M0 0L6.415 0L6.415 0.6415L0 0.6415L0 0Z"/>
	<path transform="matrix(0.5 0.866025 -0.866025 0.5 178.027 48.2935)" d="M0 0L6.415 0L6.415 0.6415L0 0.6415L0 0Z"/>
	<path transform="matrix(0.5 -0.866025 0.866025 0.5 173.708 53.849)" d="M0 0L6.415 0L6.415 0.6415L0 0.6415L0 0Z"/>
	<path transform="translate(167.293 53.5283)" d="M0 0L6.415 0L6.415 0.6415L0 0.6415L0 0Z"/>
	<path transform="matrix(0.5 0.866025 -0.866025 0.5 164.086 48.2935)" d="M0 0L6.415 0L6.415 0.6415L0 0.6415L0 0Z"/>
	<path transform="matrix(-0.5 0.866025 -0.866025 -0.5 167.016 42.8983)" d="M0 0L6.415 0L6.415 0.6415L0 0.6415L0 0Z"/>
	<path transform="translate(160.045 41.936)" d="M0 0L6.415 0L6.415 0.6415L0 0.6415L0 0Z"/>
	<path transform="matrix(0.5 0.866025 -0.866025 0.5 157.115 36.2201)" d="M0 0L6.415 0L6.415 0.6415L0 0.6415L0 0Z"/>
	<path transform="matrix(0.5 -0.866025 0.866025 0.5 152.797 41.7756)" d="M0 0L6.415 0L6.415 0.6415L0 0.6415L0 0Z"/>
	<path transform="translate(146.66 41.936)" d="M0 0L6.415 0L6.415 0.6415L0 0.6415L0 0Z"/>
	<path transform="matrix(-0.5 -0.866025 0.866025 -0.5 149.311 48.4538)" d="M0 0L6.415 0L6.415 0.6415L0 0.6415L0 0Z"/>
	<path transform="matrix(0.5 -0.866025 0.866025 0.5 145.826 53.849)" d="M0 0L6.415 0L6.415 0.6415L0 0.6415L0 0Z"/>
	<path transform="translate(139.411 53.5283)" d="M0 0L6.415 0L6.415 0.6415L0 0.6415L0 0Z"/>
	<path transform="matrix(0.5 0.866025 -0.866025 0.5 136.204 48.2934)" d="M0 0L6.415 0L6.415 0.6415L0 0.6415L0 0Z"/>
	<path transform="matrix(0.5 -0.866025 0.866025 0.5 131.885 53.849)" d="M0 0L6.415 0L6.415 0.6415L0 0.6415L0 0Z"/>
	<path transform="translate(125.47 53.5283)" d="M0 0L6.415 0L6.415 0.6415L0 0.6415L0 0Z"/>
	<path transform="matrix(0.5 0.866025 -0.866025 0.5 122.263 48.2935)" d="M0 0L6.415 0L6.415 0.6415L0 0.6415L0 0Z"/>
	<path transform="matrix(-0.5 0.866025 -0.866025 -0.5 125.192 42.8983)" d="M0 0L6.415 0L6.415 0.6415L0 0.6415L0 0Z"/>
	<path transform="translate(118.222 41.936)" d="M0 0L6.415 0L6.415 0.6415L0 0.6415L0 0Z"/>
	<path transform="matrix(0.5 0.866025 -0.866025 0.5 115.292 36.2201)" d="M0 0L6.415 0L6.415 0.6415L0 0.6415L0 0Z"/>
	<path transform="matrix(-0.5 0.866025 -0.866025 -0.5 118.222 30.8249)" d="M0 0L6.415 0L6.415 0.6415L0 0.6415L0 0Z"/>
	<path transform="matrix(-1 -1.49012e-07 1.49012e-07 -1 124.359 30.6645)" d="M0 0L6.415 0L6.415 0.6415L0 0.6415L0 0Z"/>
	<path transform="matrix(0.5 0.866025 -0.866025 0.5 121.707 24.1467)" d="M0 0L6.415 0L6.415 0.6415L0 0.6415L0 0Z"/>
	<path transform="matrix(-0.5 0.866025 -0.866025 -0.5 125.192 18.7516)" d="M0 0L6.415 0L6.415 0.6415L0 0.6415L0 0Z"/>
	<path transform="translate(118.222 17.7893)" d="M0 0L6.415 0L6.415 0.6415L0 0.6415L0 0Z"/>
	<path transform="matrix(0.5 0.866025 -0.866025 0.5 115.014 12.5545)" d="M0 0L6.415 0L6.415 0.6415L0 0.6415L0 0Z"/>
	<path transform="matrix(0.5 -0.866025 0.866025 0.5 110.696 18.1101)" d="M0 0L6.415 0L6.415 0.6415L0 0.6415L0 0Z"/>
	<path transform="translate(104.281 17.7893)" d="M0 0L6.415 0L6.415 0.6415L0 0.6415L0 0Z"/>
	<path transform="matrix(0.5 0.866025 -0.866025 0.5 101.351 12.0734)" d="M0 0L6.415 0L6.415 0.6415L0 0.6415L0 0Z"/>
	<path transform="matrix(-0.5 0.866025 -0.866025 -0.5 104.281 6.67819)" d="M0 0L6.415 0L6.415 0.6415L0 0.6415L0 0Z"/>
	<path transform="translate(97.31 5.71594)" d="M0 0L6.415 0L6.415 0.6415L0 0.6415L0 0Z"/>
	<path transform="matrix(0.5 0.866025 -0.866025 0.5 94.3803 6.67572e-06)" d="M0 0L6.415 0L6.415 0.6415L0 0.6415L0 0Z"/>
	<path transform="matrix(0.5 -0.866025 0.866025 0.5 90.0617 5.55556)" d="M0 0L6.415 0L6.415 0.6415L0 0.6415L0 0Z"/>
	<path transform="translate(83.9245 5.71594)" d="M0 0L6.415 0L6.415 0.6415L0 0.6415L0 0Z"/>
	<path transform="matrix(-0.5 -0.866025 0.866025 -0.5 86.5764 12.2337)" d="M0 0L6.415 0L6.415 0.6415L0 0.6415L0 0Z"/>
	<path transform="matrix(0.5 -0.866025 0.866025 0.5 83.0911 17.6289)" d="M0 0L6.415 0L6.415 0.6415L0 0.6415L0 0Z"/>
	<path transform="translate(76.9539 17.7893)" d="M0 0L6.415 0L6.415 0.6415L0 0.6415L0 0Z"/>
	<path transform="matrix(0.5 0.866025 -0.866025 0.5 73.7464 12.5545)" d="M0 0L6.415 0L6.415 0.6415L0 0.6415L0 0Z"/>
	<path transform="matrix(0.5 -0.866025 0.866025 0.5 69.4278 18.11)" d="M0 0L6.415 0L6.415 0.6415L0 0.6415L0 0Z"/>
	<path transform="translate(63.0128 17.7893)" d="M0 0L6.415 0L6.415 0.6415L0 0.6415L0 0Z"/>
	<path transform="matrix(-0.5 -0.866025 0.866025 -0.5 65.6647 24.3071)" d="M0 0L6.415 0L6.415 0.6415L0 0.6415L0 0Z"/>
	<path transform="matrix(0.5 -0.866025 0.866025 0.5 62.735 29.7023)" d="M0 0L6.415 0L6.415 0.6415L0 0.6415L0 0Z"/>
	<path transform="matrix(-1 1.49012e-07 -1.49012e-07 -1 69.7056 30.6645)" d="M0 0L6.415 0L6.415 0.6415L0 0.6415L0 0Z"/>
	<path transform="matrix(-0.5 -0.866025 0.866025 -0.5 72.6353 36.3805)" d="M0 0L6.415 0L6.415 0.6415L0 0.6415L0 0Z"/>
	<path transform="matrix(0.5 -0.866025 0.866025 0.5 69.15 41.7756)" d="M0 0L6.415 0L6.415 0.6415L0 0.6415L0 0Z"/>
	<path transform="translate(63.0128 41.936)" d="M0 0L6.415 0L6.415 0.6415L0 0.6415L0 0Z"/>
	<path transform="matrix(-0.5 -0.866025 0.866025 -0.5 65.6647 48.4538)" d="M0 0L6.415 0L6.415 0.6415L0 0.6415L0 0Z"/>
	<path transform="matrix(0.5 -0.866025 0.866025 0.5 62.1795 53.849)" d="M0 0L6.415 0L6.415 0.6415L0 0.6415L0 0Z"/>
	<path transform="translate(55.7645 53.5283)" d="M0 0L6.415 0L6.415 0.6415L0 0.6415L0 0Z"/>
	<path transform="matrix(0.5 0.866025 -0.866025 0.5 52.557 48.2935)" d="M0 0L6.415 0L6.415 0.6415L0 0.6415L0 0Z"/>
	<path transform="matrix(0.5 -0.866025 0.866025 0.5 48.2383 53.849)" d="M0 0L6.415 0L6.415 0.6415L0 0.6415L0 0Z"/>
	<path transform="translate(41.8233 53.5283)" d="M0 0L6.415 0L6.415 0.6415L0 0.6415L0 0Z"/>
	<path transform="matrix(0.5 0.866025 -0.866025 0.5 38.6158 48.2935)" d="M0 0L6.415 0L6.415 0.6415L0 0.6415L0 0Z"/>
	<path transform="matrix(-0.5 0.866025 -0.866025 -0.5 41.5456 42.8983)" d="M0 0L6.415 0L6.415 0.6415L0 0.6415L0 0Z"/>
	<path transform="translate(34.575 41.936)" d="M0 0L6.415 0L6.415 0.6415L0 0.6415L0 0Z"/>
	<path transform="matrix(0.5 0.866025 -0.866025 0.5 31.6453 36.2201)" d="M0 0L6.415 0L6.415 0.6415L0 0.6415L0 0Z"/>
	<path transform="matrix(0.5 -0.866025 0.866025 0.5 27.3267 41.7756)" d="M0 0L6.415 0L6.415 0.6415L0 0.6415L0 0Z"/>
	<path transform="translate(21.1895 41.936)" d="M0 0L6.415 0L6.415 0.6415L0 0.6415L0 0Z"/>
	<path transform="matrix(-0.5 -0.866025 0.866025 -0.5 23.8414 48.4538)" d="M0 0L6.415 0L6.415 0.6415L0 0.6415L0 0Z"/>
	<path transform="matrix(0.5 -0.866025 0.866025 0.5 20.3561 53.849)" d="M0 0L6.415 0L6.415 0.6415L0 0.6415L0 0Z"/>
	<path transform="translate(13.9411 53.5283)" d="M0 0L6.415 0L6.415 0.6415L0 0.6415L0 0Z"/>
	<path transform="matrix(0.5 0.866025 -0.866025 0.5 10.7336 48.2934)" d="M0 0L6.415 0L6.415 0.6415L0 0.6415L0 0Z"/>
	<path transform="matrix(0.5 -0.866025 0.866025 0.5 6.415 53.849)" d="M0 0L6.415 0L6.415 0.6415L0 0.6415L0 0Z"/>
	<path transform="translate(4.76837e-07 53.5283)" d="M0 0L6.415 0L6.415 0.6415L0 0.6415L0 0Z"/>
	<path transform="matrix(-1 1.19209e-07 -1.19209e-07 -1 94.211 195.3)" d="M0 0L0.217 0L0.217 173.6L0 173.6L0 0Z"/>
	<path transform="matrix(-1 1.19209e-07 -1.19209e-07 -1 94.211 195.3)" d="M0 0L0.217 0L0.217 173.6L0 173.6L0 0Z"/>
	<path transform="matrix(-0.5 -0.866025 0.866025 -0.5 18.9858 151.994)" d="M0 0L0.217 0L0.217 173.6L0 173.6L0 0Z"/>
	<path transform="matrix(-0.5 -0.866025 0.866025 -0.5 18.9858 151.994)" d="M0 0L0.217 0L0.217 173.6L0 173.6L0 0Z"/>
	<path transform="matrix(0.5 -0.866025 0.866025 0.5 18.8773 65.1938)" d="M0 0L0.217 0L0.217 173.6L0 173.6L0 0Z"/>
	<path transform="matrix(0.5 -0.866025 0.866025 0.5 18.8773 65.1938)" d="M0 0L0.217 0L0.217 173.6L0 173.6L0 0Z"/>
	<path transform="translate(93.994 21.6999)" d="M0 0L0.217 0L0.217 173.6L0 173.6L0 0Z"/>
	<path transform="translate(93.994 21.6999)" d="M0 0L0.217 0L0.217 173.6L0 173.6L0 0Z"/>
</svg>
